<svg aria-hidden="true" style="position: absolute; width: 0; height: 0; overflow: hidden;" version="1.1" xmlns="http://www.w3.org/2000/svg" xmlns:xlink="http://www.w3.org/1999/xlink">
<defs>
<symbol id="icon-uber" viewBox="0 0 143 32">
<path fill="#718087" style="fill: var(--color1, #718087)" d="M24.049 0.646h5.429v17.604c0 9.262-5.789 12.513-14.189 12.513-8.369 0-14.159-3.251-14.159-12.513v-16.899c0-0.491 0.24-0.705 0.72-0.705h5.429v17.328c0 5.551 2.4 7.851 8.009 7.851 5.64 0 8.039-2.3 8.039-7.851v-16.623c0-0.491 0.24-0.705 0.72-0.705zM85.513 5.461v7.422h13.739c0.24 0 0.33 0.123 0.24 0.368l-1.5 3.803c-0.15 0.337-0.36 0.491-0.81 0.491h-8.069c-2.64 0-3.6 0.828-3.6 2.638v5.245h18.598c0.24 0 0.33 0.123 0.24 0.368l-1.56 3.956c-0.15 0.337-0.36 0.491-0.81 0.491h-20.368c-1.56 0-2.16-0.552-2.16-1.748v-25.793c0-1.441 0.78-2.055 2.82-2.055h21.838c0.24 0 0.33 0.123 0.24 0.337l-1.56 3.987c-0.15 0.337-0.36 0.491-0.81 0.491h-16.469zM68.265 22.053c0 5.919-4.080 8.189-9.809 8.189h-15.179c-1.59 0-2.16-0.552-2.16-1.748v-25.793c0-1.441 0.75-2.055 2.82-2.055h12.329c5.4 0 10.619 0.951 10.619 7.514 0 2.822-0.99 5.214-3.36 6.471 3.27 0.889 4.74 3.895 4.74 7.422zM47.087 12.975h9.629c3.18 0 4.080-1.257 4.080-3.834s-0.9-3.803-4.080-3.803h-9.629v7.637zM62.175 21.501c0-2.729-0.93-4.079-4.35-4.079h-7.109c-2.64 0-3.63 0.828-3.63 2.638v5.49h10.739c3.42 0 4.35-1.349 4.35-4.049zM141.967 30.242h-5.52c-0.45 0-0.63-0.184-0.81-0.491l-5.849-10.796h-5.37c-2.64 0-3.63 0.828-3.63 2.638v8.649h-5.279c-0.48 0-0.72-0.245-0.72-0.705v-26.836c0-1.441 0.78-2.055 2.82-2.055h12.389c7.229 0 11.579 1.932 11.579 9.109 0 5.551-2.61 7.729-5.849 8.588l6.509 11.378c0.12 0.184 0.12 0.521-0.27 0.521zM135.488 9.877c0-3.006-0.81-4.478-4.59-4.478h-10.109v8.956h10.109c3.78 0 4.59-1.441 4.59-4.478z"></path>
</symbol>
<symbol id="icon-airbnb" viewBox="0 0 102 32">
<path fill="#718087" style="fill: var(--color1, #718087)" d="M53.806 7.947c0 1.14-0.913 2.058-2.046 2.058s-2.045-0.918-2.045-2.058 0.881-2.058 2.045-2.058c1.165 0.032 2.046 0.95 2.046 2.058zM45.371 12.095v0.507c0 0-0.975-1.267-3.052-1.267-3.43 0-6.106 2.628-6.106 6.269 0 3.609 2.644 6.268 6.106 6.268 2.109 0 3.052-1.298 3.052-1.298v0.538c0 0.253 0.189 0.443 0.441 0.443h2.549v-11.904h-2.549c-0.252 0.001-0.441 0.223-0.441 0.445zM45.371 19.724c-0.472 0.697-1.416 1.298-2.549 1.298-2.014 0-3.556-1.266-3.556-3.419s1.542-3.419 3.556-3.419c1.102 0 2.109 0.633 2.549 1.298v4.242zM50.249 11.651h3.021v11.904h-3.021v-11.904zM95.379 11.334c-2.077 0-3.053 1.267-3.053 1.267v-6.68h-3.021v17.634h2.549c0.252 0 0.44-0.222 0.44-0.444v-0.538c0 0 0.976 1.298 3.053 1.298 3.431 0 6.105-2.659 6.105-6.268s-2.675-6.27-6.073-6.27zM94.876 20.99c-1.165 0-2.077-0.601-2.549-1.298v-4.242c0.472-0.633 1.479-1.298 2.549-1.298 2.014 0 3.556 1.266 3.556 3.419s-1.542 3.419-3.556 3.419zM87.732 16.495v7.092h-3.022v-6.744c0-1.963-0.629-2.755-2.328-2.755-0.912 0-1.857 0.475-2.456 1.172v8.295h-3.020v-11.904h2.391c0.252 0 0.441 0.222 0.441 0.443v0.507c0.881-0.918 2.046-1.267 3.21-1.267 1.322 0 2.424 0.38 3.305 1.14 1.070 0.887 1.479 2.026 1.479 4.021zM69.573 11.334c-2.077 0-3.052 1.267-3.052 1.267v-6.68h-3.021v17.634h2.549c0.252 0 0.441-0.222 0.441-0.444v-0.538c0 0 0.976 1.298 3.053 1.298 3.431 0 6.106-2.659 6.106-6.268 0.031-3.61-2.643-6.27-6.074-6.27zM69.069 20.99c-1.164 0-2.077-0.601-2.549-1.298v-4.242c0.472-0.633 1.479-1.298 2.549-1.298 2.015 0 3.556 1.266 3.556 3.419s-1.542 3.419-3.556 3.419zM60.887 11.334c0.912 0 1.385 0.159 1.385 0.159v2.817c0 0-2.518-0.855-4.091 0.95v8.326h-3.022v-11.935h2.549c0.252 0 0.44 0.222 0.44 0.443v0.507c0.567-0.665 1.795-1.267 2.738-1.267zM29.51 22.478c-0.157-0.38-0.315-0.791-0.472-1.14-0.252-0.57-0.504-1.108-0.724-1.615l-0.032-0.032c-2.172-4.749-4.5-9.561-6.955-14.309l-0.094-0.19c-0.258-0.493-0.51-0.989-0.755-1.488-0.315-0.57-0.629-1.171-1.133-1.741-1.007-1.266-2.455-1.963-3.997-1.963-1.574 0-2.99 0.697-4.028 1.9-0.472 0.57-0.819 1.171-1.133 1.741-0.246 0.499-0.497 0.995-0.755 1.488l-0.095 0.19c-2.423 4.748-4.784 9.561-6.955 14.309l-0.032 0.063c-0.22 0.507-0.472 1.045-0.724 1.615-0.157 0.349-0.314 0.728-0.472 1.14-0.409 1.171-0.535 2.279-0.378 3.419 0.346 2.375 1.919 4.368 4.091 5.255 0.818 0.349 1.668 0.507 2.549 0.507 0.252 0 0.566-0.032 0.818-0.064 1.039-0.126 2.109-0.474 3.147-1.076 1.29-0.728 2.518-1.773 3.902-3.292 1.385 1.52 2.643 2.564 3.902 3.292 1.039 0.601 2.109 0.949 3.147 1.076 0.252 0.032 0.567 0.064 0.819 0.064 0.881 0 1.762-0.158 2.549-0.507 2.203-0.887 3.745-2.912 4.091-5.255 0.25-1.108 0.124-2.215-0.285-3.387zM15.317 24.125c-1.7-2.153-2.801-4.179-3.179-5.888-0.157-0.728-0.189-1.362-0.094-1.931 0.062-0.507 0.252-0.95 0.504-1.33 0.598-0.854 1.605-1.393 2.77-1.393s2.203 0.507 2.77 1.393c0.252 0.38 0.44 0.824 0.504 1.33 0.094 0.57 0.063 1.235-0.095 1.931-0.379 1.677-1.48 3.704-3.18 5.888zM27.873 25.613c-0.22 1.646-1.322 3.071-2.864 3.705-0.755 0.316-1.574 0.412-2.392 0.316-0.787-0.095-1.574-0.349-2.392-0.823-1.133-0.634-2.266-1.615-3.588-3.071 2.077-2.564 3.336-4.907 3.808-6.996 0.22-0.982 0.252-1.868 0.157-2.692-0.125-0.791-0.409-1.52-0.85-2.153-0.976-1.425-2.613-2.248-4.438-2.248s-3.462 0.855-4.437 2.248c-0.44 0.633-0.724 1.362-0.85 2.153-0.126 0.824-0.095 1.741 0.157 2.692 0.472 2.089 1.762 4.464 3.808 7.028-1.29 1.456-2.455 2.438-3.588 3.071-0.818 0.475-1.605 0.728-2.391 0.823-0.849 0.095-1.668-0.032-2.392-0.316-1.542-0.633-2.643-2.058-2.864-3.705-0.094-0.791-0.032-1.583 0.283-2.469 0.094-0.317 0.252-0.633 0.409-1.013 0.22-0.507 0.472-1.045 0.724-1.583l0.032-0.063c2.171-4.718 4.5-9.53 6.923-14.215l0.094-0.19c0.252-0.474 0.504-0.981 0.755-1.456 0.252-0.507 0.535-0.982 0.881-1.393 0.661-0.759 1.542-1.171 2.518-1.171s1.857 0.412 2.518 1.171c0.346 0.413 0.629 0.888 0.881 1.394 0.252 0.475 0.504 0.982 0.755 1.456l0.095 0.19c2.386 4.705 4.684 9.454 6.892 14.246v0.032c0.252 0.507 0.472 1.077 0.724 1.584 0.157 0.379 0.315 0.696 0.409 1.012 0.251 0.822 0.346 1.614 0.22 2.437z"></path>
</symbol>
<symbol id="icon-gucc" viewBox="0 0 129 32">
<path fill="#718087" style="fill: var(--color1, #718087)" opacity="0.8" d="M29.313 21.608v6.611c-2.403 2.113-8.146 3.371-12.422 3.371-4.27 0-16.090-2.645-16.090-15.070s11.25-15.103 15.789-15.103c4.544 0 9.383 0.824 12.186 2.677v5.815c0 0.726-1.002 0.661-1.002 0-0.066-0.992-2.737-6.936-9.416-6.806-7.21 0.146-12.082 5.755-12.082 13.152s4.735 13.748 11.885 13.548c2.321-0.065 4.741-0.791 5.912-1.756l0.027-6.438c0-1.848-1.133-2.509-2.267-2.509-0.739 0-0.739-1.057 0-1.057h9.745c0.734 0 0.734 1.122 0 1.057-1.128 0-2.266 0.661-2.266 2.509zM95.012 9.914c0 0.726-0.733 0.661-0.733 0-0.071-0.992-2.737-7.137-9.416-7.001-7.21 0.141-12.088 5.95-12.088 13.347s4.675 13.943 11.819 13.748c7.144-0.201 10.549-7.202 10.818-8.129s0.734-0.791 0.734-0.065v5.419c-2.934 2.113-8.48 4.362-12.75 4.362s-16.090-2.645-16.090-15.071c0-12.431 11.217-15.401 15.756-15.401 4.544 0 9.148 1.122 11.956 2.97v5.82h-0.006zM64.766 1.85c1.067 0 1.067 0.992 0 0.992-1.133 0-2.267 0.661-2.267 2.509l-0.131 14.442c0 6.915-5.666 11.998-12.657 11.998s-12.449-5.083-12.449-11.998v-14.442c0-1.853-1.139-2.509-2.272-2.509-1.068 0-1.068-0.992 0-0.992h9.881c1.068 0 1.068 0.992 0 0.992-1.139 0-2.272 0.661-2.272 2.509l-0.011 16.127c0 4.877 4.029 8.833 8.956 8.833s8.923-4.948 8.923-9.819l-0.241-15.141c0-1.853-1.133-2.509-2.272-2.509-1.062 0-1.062-0.992 0-0.992h6.81zM127.663 9.914c0 0.726-0.734 0.661-0.734 0-0.066-0.992-2.737-7.137-9.416-7.001-7.21 0.141-12.088 5.95-12.088 13.347s4.675 13.943 11.819 13.748c7.144-0.195 10.549-7.202 10.818-8.129s0.739-0.791 0.739-0.065v5.419c-2.94 2.113-8.48 4.362-12.756 4.362-4.27 0-16.090-2.645-16.090-15.071 0-12.431 11.217-15.401 15.761-15.401 4.538 0 9.148 1.122 11.951 2.97v5.82h-0.005z"></path>
</symbol>
<symbol id="icon-microsoft" viewBox="0 0 145 32">
<path fill="#718087" style="fill: var(--color1, #718087)" d="M144.153 14.303v-2.524h-3.134v-3.924l-0.105 0.033-3.001 0.918v2.973h-4.647v-1.657c-0.045-0.627 0.137-1.25 0.512-1.755 0.181-0.198 0.403-0.354 0.652-0.455s0.516-0.146 0.784-0.131c0.471 0.006 0.935 0.112 1.362 0.31l0.115 0.052v-2.656l-0.054-0.020c-0.564-0.174-1.152-0.252-1.741-0.232-0.86-0.014-1.709 0.19-2.469 0.593-0.714 0.384-1.302 0.966-1.694 1.675-0.407 0.754-0.614 1.6-0.6 2.457v1.82h-2.182v2.524h2.182v10.632h3.133v-10.632h4.647v6.754c0 2.785 1.312 4.193 3.902 4.193 0.447-0.003 0.893-0.052 1.33-0.147 0.336-0.057 0.661-0.16 0.969-0.307l0.041-0.025v-2.547l-0.128 0.084c-0.194 0.123-0.407 0.215-0.63 0.272-0.201 0.062-0.409 0.097-0.619 0.105-0.244 0.021-0.49-0.011-0.721-0.095s-0.439-0.217-0.613-0.391c-0.33-0.497-0.48-1.092-0.425-1.686v-6.211h3.134zM120.953 22.687c-0.5 0.026-0.999-0.061-1.461-0.255s-0.873-0.49-1.205-0.865c-0.687-0.906-1.027-2.028-0.958-3.163-0.073-1.161 0.266-2.311 0.958-3.247 0.324-0.378 0.731-0.677 1.188-0.874s0.954-0.287 1.451-0.263c0.482-0.023 0.964 0.062 1.409 0.251s0.842 0.474 1.161 0.836c0.686 0.927 1.019 2.069 0.939 3.22 0.079 1.155-0.232 2.303-0.883 3.26-0.318 0.373-0.718 0.667-1.17 0.858s-0.941 0.274-1.43 0.242zM121.092 11.457c-0.937-0.052-1.875 0.090-2.756 0.415s-1.686 0.827-2.365 1.475c-0.635 0.694-1.126 1.507-1.444 2.393s-0.456 1.825-0.406 2.765c-0.045 0.9 0.092 1.8 0.402 2.646s0.788 1.621 1.404 2.278c0.642 0.617 1.403 1.096 2.237 1.409s1.722 0.452 2.611 0.41c0.924 0.045 1.847-0.102 2.711-0.431s1.65-0.835 2.309-1.484c0.63-0.687 1.118-1.492 1.436-2.368s0.459-1.807 0.415-2.738c0.099-1.817-0.525-3.599-1.735-4.958-0.634-0.619-1.39-1.099-2.219-1.41s-1.714-0.447-2.598-0.398v-0.002zM109.070 11.459c-1.303-0.055-2.585 0.341-3.629 1.121-0.449 0.341-0.811 0.783-1.057 1.291s-0.368 1.066-0.357 1.63c-0.011 0.558 0.093 1.113 0.305 1.63 0.211 0.476 0.531 0.895 0.936 1.223 0.583 0.439 1.223 0.797 1.902 1.065 0.543 0.213 1.072 0.46 1.584 0.738 0.27 0.141 0.507 0.336 0.697 0.573 0.14 0.223 0.207 0.484 0.194 0.747 0 0.883-0.662 1.314-2.024 1.314-0.584-0.014-1.161-0.12-1.712-0.313-0.627-0.205-1.218-0.505-1.754-0.889l-0.13-0.093v3.016l0.048 0.022c0.533 0.233 1.090 0.405 1.661 0.513 0.583 0.127 1.177 0.195 1.773 0.204 1.368 0.071 2.72-0.327 3.832-1.128 0.457-0.35 0.824-0.804 1.072-1.323s0.37-1.090 0.355-1.666c0.022-0.821-0.25-1.623-0.768-2.26-0.725-0.753-1.619-1.322-2.608-1.661-0.666-0.223-1.293-0.549-1.858-0.966-0.129-0.134-0.229-0.293-0.293-0.468s-0.092-0.36-0.082-0.546c-0.003-0.183 0.039-0.364 0.122-0.527s0.204-0.304 0.354-0.41c0.39-0.27 0.859-0.402 1.333-0.376 0.538 0.003 1.073 0.085 1.587 0.244 0.492 0.143 0.959 0.36 1.386 0.643l0.128 0.088v-2.858l-0.049-0.021c-0.454-0.181-0.926-0.312-1.407-0.393-0.508-0.1-1.025-0.153-1.543-0.16l0.004-0.003zM95.86 22.687c-0.5 0.026-0.999-0.061-1.461-0.255s-0.873-0.49-1.205-0.865c-0.686-0.905-1.026-2.025-0.957-3.159-0.073-1.161 0.266-2.311 0.958-3.247 0.324-0.378 0.731-0.677 1.188-0.875s0.954-0.287 1.452-0.263c0.482-0.023 0.964 0.062 1.409 0.251s0.842 0.474 1.161 0.836c0.686 0.927 1.019 2.069 0.939 3.22 0.079 1.155-0.232 2.303-0.883 3.26-0.318 0.373-0.718 0.667-1.17 0.858s-0.941 0.273-1.43 0.241l-0.001-0.002zM96.001 11.46c-0.937-0.052-1.875 0.089-2.756 0.414s-1.686 0.827-2.365 1.475c-0.635 0.694-1.126 1.507-1.444 2.393s-0.456 1.825-0.407 2.765c-0.045 0.9 0.092 1.8 0.402 2.646s0.788 1.621 1.405 2.278c0.642 0.617 1.403 1.096 2.237 1.409s1.722 0.452 2.611 0.41c0.924 0.045 1.847-0.102 2.711-0.431s1.65-0.835 2.309-1.484c0.63-0.687 1.118-1.492 1.436-2.368s0.459-1.807 0.415-2.738c0.099-1.817-0.526-3.6-1.736-4.959-0.634-0.618-1.389-1.098-2.218-1.41s-1.714-0.447-2.598-0.398v-0.002zM84.274 14.057v-2.279h-3.095v13.156h3.095v-6.73c-0.044-0.99 0.226-1.968 0.772-2.794 0.219-0.33 0.517-0.599 0.867-0.784s0.741-0.279 1.136-0.273c0.315 0.005 0.627 0.050 0.93 0.136 0.255 0.057 0.499 0.155 0.721 0.292l0.13 0.094v-3.119l-0.050-0.022c-0.388-0.139-0.8-0.201-1.212-0.184-0.756-0.007-1.49 0.256-2.070 0.742-0.542 0.476-0.953 1.085-1.191 1.766l-0.035-0.001zM75.637 11.461c-1.311-0.026-2.607 0.285-3.763 0.905-1.063 0.585-1.927 1.474-2.482 2.553-0.585 1.173-0.877 2.47-0.852 3.781-0.015 1.182 0.27 2.348 0.829 3.389 0.53 0.987 1.334 1.8 2.315 2.341 1.039 0.559 2.204 0.842 3.383 0.823 1.3 0.042 2.589-0.26 3.736-0.874l0.041-0.023v-2.836l-0.13 0.095c-0.463 0.336-0.973 0.602-1.514 0.789-0.475 0.177-0.976 0.274-1.483 0.287-0.535 0.026-1.070-0.061-1.569-0.256s-0.952-0.492-1.328-0.873c-0.75-0.864-1.133-1.986-1.068-3.129-0.057-1.174 0.342-2.325 1.114-3.211 0.37-0.396 0.821-0.707 1.321-0.914s1.040-0.304 1.581-0.284c1.067 0.017 2.099 0.376 2.946 1.025l0.13 0.094v-2.989l-0.042-0.024c-0.451-0.232-0.933-0.395-1.432-0.484-0.569-0.12-1.149-0.183-1.73-0.185l-0.002 0.001zM66.41 11.778h-3.095v13.157h3.095v-13.157zM64.894 6.173c-0.49-0.008-0.964 0.178-1.318 0.517-0.178 0.164-0.32 0.363-0.415 0.586s-0.142 0.463-0.137 0.705c-0.005 0.238 0.040 0.473 0.134 0.692s0.233 0.414 0.409 0.574c0.359 0.334 0.834 0.515 1.325 0.504 0.492 0.010 0.968-0.171 1.33-0.503 0.178-0.159 0.32-0.354 0.416-0.572s0.143-0.455 0.138-0.694c0.003-0.238-0.044-0.475-0.137-0.694s-0.23-0.418-0.402-0.582c-0.177-0.175-0.387-0.312-0.618-0.403s-0.478-0.135-0.727-0.128h0.003zM57.17 10.807v14.128h3.158v-18.358h-4.371l-5.556 13.636-5.392-13.636h-4.551v18.357h2.968v-14.128h0.102l5.693 14.128h2.242l5.605-14.128 0.101 0.001z"></path>
<path fill="#718087" style="fill: var(--color1, #718087)" d="M15.202 15h-14.558v-14.558h14.558v14.558z"></path>
<path fill="#718087" style="fill: var(--color1, #718087)" d="M31.276 15h-14.558v-14.558h14.558v14.558z"></path>
<path fill="#718087" style="fill: var(--color1, #718087)" d="M15.202 31.079h-14.558v-14.558h14.558v14.558z"></path>
<path fill="#718087" style="fill: var(--color1, #718087)" d="M31.276 31.079h-14.558v-14.558h14.558v14.558z"></path>
</symbol>
<symbol id="icon-chaze" viewBox="0 0 165 32">
<path fill="#718087" style="fill: var(--color1, #718087)" d="M55.443 0.492v12.102h-16.861v-12.102l-6.141-0.005v30.515h6.141v-13.109h16.861v13.109h6.151v-30.51h-6.151z"></path>
<path fill="#718087" style="fill: var(--color1, #718087)" d="M137.138 0.493v30.502h26.942l-3.412-5.37h-17.371v-7.732h16.821v-5.172h-16.821v-6.984h17.342l3.343-5.244h-26.843z"></path>
<path fill="#718087" style="fill: var(--color1, #718087)" d="M9.614 0.485c-6.388 0-9.614 3.883-9.614 9.534v11.391c0 6.539 4.158 9.592 9.582 9.592l19.267-0.002-3.572-5.578h-14.505c-3.081 0-4.424-1.114-4.424-4.563v-10.334c0-3.334 1.13-4.634 4.506-4.634h14.574l3.43-5.406h-19.244z"></path>
<path fill="#718087" style="fill: var(--color1, #718087)" d="M110.187 0.477c-3.689 0-7.471 2.217-7.471 7.921v1.466c0 5.946 3.638 8.214 7.278 8.23h12.777c1.327 0 2.405 0.221 2.405 2.463l-0.002 2.591c-0.034 2.015-1.039 2.476-2.449 2.476h-16.809l-3.443 5.37h20.648c4.979 0 8.359-2.477 8.359-8.199v-2.103c0-5.532-3.141-8.146-8.010-8.146h-12.2c-1.352 0-2.295-0.369-2.295-2.372v-2.11c0-1.706 0.646-2.329 2.222-2.329l16.008-0.006 3.346-5.26-20.364 0.007z"></path>
<path fill="#718087" style="fill: var(--color1, #718087)" d="M79.435 0.493l-14.468 30.508h6.838l2.818-6.3h15.722l2.809 6.3h6.868l-14.502-30.508h-6.085zM82.47 6.827l5.559 12.68h-11.083l5.524-12.68z"></path>
</symbol>
<symbol id="icon-buzz" viewBox="0 0 95 32">
<path fill="#718087" style="fill: var(--color1, #718087)" d="M19.575 15.793c1.574 0.126 2.895 0.759 4.028 1.96s1.699 2.845 1.699 4.932c0 2.529-0.818 4.616-2.518 6.133s-4.091 2.276-7.301 2.276h-15.484v-29.971h15.421c2.707 0 4.91 0.759 6.546 2.213 1.637 1.518 2.455 3.478 2.455 5.944 0 1.897-0.504 3.351-1.574 4.489s-2.14 1.707-3.336 1.834l0.063 0.19zM7.364 13.517h6.42c1.070 0 1.951-0.316 2.644-0.948 0.629-0.632 1.007-1.391 1.007-2.466 0-0.948-0.315-1.644-0.944-2.213s-1.448-0.822-2.392-0.822h-6.735v6.45zM14.162 25.151c1.133 0 2.077-0.316 2.707-0.885s0.944-1.391 0.944-2.466c0-1.012-0.315-1.77-1.007-2.339-0.629-0.569-1.511-0.885-2.518-0.885h-6.924v6.576h6.798zM50.795 31.095h-7.113v-2.15c-1.762 1.897-4.091 2.845-6.861 2.845-2.644 0-4.721-0.885-6.294-2.592s-2.392-3.983-2.392-6.766v-13.784h7.050v12.267c0 1.328 0.378 2.403 1.070 3.225s1.637 1.201 2.769 1.201c1.448 0 2.581-0.506 3.399-1.517s1.196-2.593 1.196-4.742v-10.433h7.113l0.063 22.447zM72.762 31.095h-18.883v-1.328l8.875-15.428h-8.623v-5.691h18.505v1.328l-8.875 15.428h8.938v5.691h0.063zM94.667 31.095h-18.82v-1.328l8.812-15.428h-8.623v-5.691h18.505v1.328l-8.875 15.428h8.938l0.063 5.691z"></path>
</symbol>
<symbol id="icon-search" viewBox="0 0 32 32">
<path fill="#fff" style="fill: var(--color1, #fff)" d="M29.977 31.653c0.463 0.463 1.213 0.463 1.676 0s0.463-1.213 0-1.676l-1.676 1.676zM31.653 29.977l-8.685-8.685-1.676 1.676 8.685 8.685 1.676-1.676zM24.521 13.446c0 6.117-4.959 11.075-11.075 11.075v2.37c7.426 0 13.446-6.020 13.446-13.446h-2.37zM13.446 24.521c-6.117 0-11.075-4.959-11.075-11.075h-2.37c0 7.426 6.020 13.446 13.446 13.446v-2.37zM2.37 13.446c0-6.117 4.959-11.075 11.075-11.075v-2.37c-7.426 0-13.446 6.020-13.446 13.446h2.37zM13.446 2.37c6.117 0 11.075 4.959 11.075 11.075h2.37c0-7.426-6.020-13.446-13.446-13.446v2.37z"></path>
</symbol>
<symbol id="icon-hand" viewBox="0 0 32 32">
<path fill="#fff" style="fill: var(--color1, #fff)" d="M8.88 30.070l-1.944 1.93-6.936-6.71 4.969-4.898c1.006-0.999 2.276-1.696 3.664-2.011s2.836-0.235 4.18 0.232l1.092 0.379h6.699c0.283-0 0.564 0.056 0.825 0.166s0.497 0.27 0.694 0.472c0.197 0.202 0.352 0.441 0.454 0.703s0.151 0.542 0.142 0.824c-0.032 0.556-0.279 1.078-0.69 1.457s-0.953 0.586-1.514 0.577h-4.019c-0.218 0-0.427 0.086-0.581 0.239s-0.241 0.361-0.241 0.577 0.087 0.424 0.241 0.577c0.154 0.153 0.363 0.239 0.581 0.239h4.032c0.984 0.005 1.931-0.366 2.647-1.036s1.145-1.587 1.198-2.562c0-0.016 0-0.033 0-0.052l3.73-4.17c0.379-0.436 0.913-0.711 1.49-0.767s1.155 0.111 1.611 0.467c0.226 0.186 0.412 0.415 0.548 0.673s0.217 0.541 0.241 0.831c0.024 0.29-0.012 0.582-0.104 0.859s-0.239 0.532-0.432 0.752l-7.446 8.49c-0.492 0.559-1.098 1.007-1.779 1.314s-1.42 0.464-2.168 0.463l-11.185-0.013zM24.255 11.611c0-0.411-0.165-0.806-0.457-1.097s-0.69-0.454-1.105-0.454h-2.302v-2.286c-0.018-0.399-0.191-0.775-0.482-1.050s-0.677-0.429-1.079-0.429c-0.402 0-0.788 0.154-1.079 0.429s-0.463 0.652-0.482 1.050v2.286h-2.302c-0.211-0.010-0.422 0.023-0.62 0.097s-0.379 0.186-0.531 0.331c-0.153 0.145-0.274 0.319-0.357 0.512s-0.126 0.4-0.126 0.61c0 0.21 0.043 0.417 0.126 0.61s0.205 0.367 0.357 0.512c0.153 0.145 0.333 0.257 0.531 0.331s0.409 0.107 0.62 0.097h2.302v2.286c0.019 0.399 0.191 0.775 0.482 1.051s0.677 0.429 1.079 0.429 0.788-0.154 1.079-0.429c0.291-0.276 0.463-0.652 0.482-1.050v-2.286h2.302c0.414 0 0.811-0.163 1.104-0.453s0.458-0.684 0.459-1.095zM9.278 3.017v1.685h-1.694c-0.305 0-0.598 0.12-0.814 0.335s-0.337 0.505-0.337 0.808c0 0.303 0.121 0.594 0.337 0.808s0.509 0.335 0.814 0.335h1.697v1.685c0 0.303 0.121 0.594 0.337 0.808s0.509 0.335 0.814 0.335c0.305 0 0.598-0.12 0.814-0.335s0.337-0.505 0.337-0.808v-1.691h1.687c0.305 0 0.598-0.12 0.814-0.335s0.337-0.505 0.337-0.808-0.121-0.594-0.337-0.808c-0.216-0.214-0.509-0.335-0.814-0.335h-1.697v-1.678c0-0.303-0.121-0.594-0.337-0.808s-0.509-0.335-0.814-0.335c-0.305 0-0.598 0.12-0.814 0.335s-0.337 0.505-0.337 0.808h0.007zM23.798 0c-0.262 0-0.513 0.103-0.698 0.287s-0.289 0.433-0.289 0.693v1.45h-1.46c-0.262 0-0.513 0.103-0.698 0.287s-0.289 0.433-0.289 0.693 0.104 0.509 0.289 0.693c0.185 0.184 0.436 0.287 0.698 0.287h1.46v1.45c0 0.26 0.104 0.509 0.289 0.693s0.436 0.287 0.698 0.287c0.262 0 0.513-0.103 0.698-0.287s0.289-0.433 0.289-0.693v-1.45h1.46c0.13 0 0.258-0.025 0.378-0.075s0.228-0.121 0.32-0.212c0.092-0.091 0.164-0.199 0.214-0.318s0.075-0.246 0.075-0.375-0.025-0.256-0.075-0.375c-0.050-0.119-0.122-0.227-0.214-0.318s-0.2-0.163-0.32-0.212-0.248-0.075-0.378-0.075h-1.46v-1.45c0-0.26-0.104-0.509-0.289-0.693s-0.436-0.287-0.698-0.287z"></path>
</symbol>
<symbol id="icon-house" viewBox="0 0 27 32">
<path fill="#fff" style="fill: var(--color1, #fff)" d="M21.093 32v-25.608h-21.093v25.608h4.913v-1.519c0-1.91 1.498-3.467 3.312-3.467h4.642c1.816 0 3.325 1.557 3.325 3.467v1.519h4.901zM5.824 22.845c0 0.136-0.024 0.277-0.074 0.403s-0.118 0.241-0.209 0.338c-0.091 0.096-0.201 0.169-0.32 0.221s-0.253 0.078-0.382 0.078h-2.327c-0.129 0-0.262-0.026-0.382-0.078s-0.229-0.125-0.32-0.221c-0.091-0.096-0.16-0.212-0.209-0.338s-0.074-0.266-0.074-0.403v-2.428c0-0.136 0.024-0.277 0.074-0.403s0.118-0.241 0.209-0.338c0.091-0.096 0.201-0.169 0.32-0.221s0.253-0.078 0.382-0.078h2.327c0.129 0 0.262 0.026 0.382 0.078s0.229 0.125 0.32 0.221c0.091 0.096 0.16 0.212 0.209 0.338s0.074 0.266 0.074 0.403v2.428zM5.824 15.664c0 0.136-0.024 0.277-0.074 0.403s-0.118 0.242-0.209 0.337c-0.091 0.096-0.201 0.169-0.32 0.221s-0.253 0.078-0.382 0.078h-2.327c-0.129 0-0.262-0.026-0.382-0.078s-0.229-0.125-0.32-0.221c-0.091-0.096-0.16-0.212-0.209-0.337s-0.074-0.267-0.074-0.403v-2.441c0-0.136 0.024-0.264 0.074-0.39s0.118-0.241 0.209-0.338c0.091-0.096 0.201-0.182 0.32-0.234s0.253-0.078 0.382-0.078h2.327c0.129 0 0.262 0.026 0.382 0.078s0.229 0.138 0.32 0.234c0.091 0.096 0.16 0.212 0.209 0.338s0.074 0.253 0.074 0.39v2.441zM8.398 13.106c0-0.136 0.024-0.277 0.074-0.403s0.118-0.241 0.209-0.338c0.091-0.096 0.201-0.169 0.32-0.221s0.253-0.078 0.382-0.078h2.081c0.129 0 0.262 0.026 0.382 0.078s0.229 0.125 0.32 0.221c0.091 0.096 0.16 0.212 0.209 0.338s0.074 0.266 0.074 0.403v2.181c0 0.136-0.024 0.264-0.074 0.389s-0.118 0.241-0.209 0.338c-0.091 0.096-0.201 0.181-0.32 0.233s-0.253 0.078-0.382 0.078h-2.081c-0.129 0-0.263-0.026-0.382-0.078s-0.229-0.138-0.32-0.233c-0.091-0.096-0.16-0.212-0.209-0.338s-0.074-0.253-0.074-0.389v-2.181zM12.51 22.534c0 0.136-0.024 0.264-0.074 0.39s-0.118 0.242-0.209 0.338c-0.091 0.096-0.201 0.181-0.32 0.234s-0.253 0.078-0.382 0.078h-2.143c-0.129 0-0.263-0.026-0.382-0.078s-0.229-0.137-0.32-0.234c-0.091-0.096-0.16-0.212-0.209-0.338s-0.074-0.253-0.074-0.39v-2.246c0-0.136 0.024-0.277 0.074-0.403s0.118-0.241 0.209-0.337c0.091-0.096 0.201-0.169 0.32-0.221s0.253-0.078 0.382-0.078h2.143c0.129 0 0.262 0.026 0.382 0.078s0.229 0.125 0.32 0.221c0.091 0.096 0.16 0.212 0.209 0.337s0.074 0.267 0.074 0.403v2.246zM15.268 13.223c0-0.136 0.024-0.264 0.074-0.39s0.118-0.241 0.209-0.338c0.091-0.096 0.201-0.182 0.32-0.234s0.253-0.078 0.382-0.078h2.327c0.129 0 0.262 0.026 0.382 0.078s0.229 0.138 0.32 0.234c0.091 0.096 0.16 0.212 0.209 0.338s0.074 0.253 0.074 0.39v2.441c0 0.136-0.024 0.277-0.074 0.403s-0.118 0.242-0.209 0.337c-0.091 0.096-0.201 0.169-0.32 0.221s-0.253 0.078-0.382 0.078h-2.327c-0.129 0-0.262-0.026-0.382-0.078s-0.229-0.125-0.32-0.221c-0.091-0.096-0.16-0.212-0.209-0.337s-0.074-0.267-0.074-0.403v-2.441zM15.872 23.806c-0.119-0.052-0.229-0.125-0.32-0.221s-0.16-0.212-0.209-0.338c-0.049-0.126-0.074-0.266-0.074-0.403v-2.428c0-0.136 0.024-0.277 0.074-0.403s0.118-0.241 0.209-0.338c0.091-0.096 0.201-0.169 0.32-0.221s0.253-0.078 0.382-0.078h2.327c0.129 0 0.262 0.026 0.382 0.078s0.229 0.125 0.32 0.221c0.091 0.096 0.16 0.212 0.209 0.338s0.074 0.266 0.074 0.403v2.428c0 0.136-0.024 0.277-0.074 0.403s-0.118 0.241-0.209 0.338c-0.091 0.096-0.201 0.169-0.32 0.221s-0.253 0.078-0.382 0.078h-2.327c-0.129 0-0.262-0.026-0.381-0.078z"></path>
<path fill="#fff" style="fill: var(--color1, #fff)" d="M25.54 0h-20.315l-3.906 4.313h20.301l3.92-4.313z"></path>
<path fill="#fff" style="fill: var(--color1, #fff)" d="M23.062 30.444l3.818-4.216v-24.7l-3.818 4.201v24.715z"></path>
<path fill="#fff" style="fill: var(--color1, #fff)" d="M8.223 29.087c-0.747 0-1.344 0.63-1.344 1.396v1.514h7.337v-1.514c0-0.766-0.595-1.396-1.348-1.396h-4.645z"></path>
</symbol>
<symbol id="icon-Review" viewBox="0 0 181 32">
<path fill="#fbb040" style="fill: var(--color1, #fbb040)" d="M15.983 1.283c0.146-0.422 0.743-0.422 0.889 0l3.134 9.042c0.066 0.189 0.244 0.316 0.445 0.316h10.074c0.463 0 0.648 0.599 0.265 0.86l-8.096 5.515c-0.176 0.12-0.249 0.342-0.18 0.543l3.105 8.958c0.148 0.428-0.335 0.798-0.71 0.543l-8.216-5.596c-0.16-0.109-0.37-0.109-0.53 0l-8.216 5.596c-0.375 0.255-0.858-0.115-0.71-0.543l3.105-8.958c0.070-0.201-0.004-0.423-0.18-0.543l-8.096-5.515c-0.383-0.261-0.198-0.86 0.265-0.86h10.074c0.2 0 0.379-0.127 0.445-0.316l3.134-9.042z"></path>
<path fill="#fbb040" style="fill: var(--color1, #fbb040)" d="M52.946 1.283c0.146-0.422 0.743-0.422 0.889 0l3.134 9.042c0.066 0.189 0.244 0.316 0.445 0.316h10.074c0.463 0 0.648 0.599 0.265 0.86l-8.097 5.515c-0.176 0.12-0.249 0.342-0.18 0.543l3.105 8.958c0.149 0.428-0.335 0.798-0.709 0.543l-8.216-5.596c-0.16-0.109-0.37-0.109-0.53 0l-8.216 5.596c-0.375 0.255-0.858-0.115-0.71-0.543l3.105-8.958c0.070-0.201-0.004-0.423-0.18-0.543l-8.096-5.515c-0.383-0.261-0.198-0.86 0.265-0.86h10.074c0.2 0 0.379-0.127 0.445-0.316l3.134-9.042z"></path>
<path fill="#fbb040" style="fill: var(--color1, #fbb040)" d="M89.908 1.283c0.146-0.422 0.743-0.422 0.889 0l3.134 9.042c0.066 0.189 0.244 0.316 0.445 0.316h10.074c0.463 0 0.648 0.599 0.265 0.86l-8.097 5.515c-0.176 0.12-0.249 0.342-0.18 0.543l3.105 8.958c0.149 0.428-0.335 0.798-0.709 0.543l-8.216-5.596c-0.16-0.109-0.37-0.109-0.53 0l-8.216 5.596c-0.375 0.255-0.858-0.115-0.71-0.543l3.105-8.958c0.070-0.201-0.004-0.423-0.18-0.543l-8.096-5.515c-0.383-0.261-0.198-0.86 0.265-0.86h10.074c0.2 0 0.379-0.127 0.445-0.316l3.134-9.042z"></path>
<path fill="#fbb040" style="fill: var(--color1, #fbb040)" d="M126.871 1.283c0.146-0.422 0.743-0.422 0.889 0l3.134 9.042c0.066 0.189 0.244 0.316 0.445 0.316h10.074c0.463 0 0.648 0.599 0.265 0.86l-8.096 5.515c-0.176 0.12-0.249 0.342-0.18 0.543l3.105 8.958c0.148 0.428-0.335 0.798-0.71 0.543l-8.216-5.596c-0.16-0.109-0.37-0.109-0.53 0l-8.216 5.596c-0.375 0.255-0.858-0.115-0.709-0.543l3.105-8.958c0.070-0.201-0.004-0.423-0.18-0.543l-8.097-5.515c-0.383-0.261-0.198-0.86 0.265-0.86h10.074c0.2 0 0.379-0.127 0.445-0.316l3.134-9.042z"></path>
<path fill="#fbb040" style="fill: var(--color1, #fbb040)" d="M163.833 1.283c0.146-0.422 0.743-0.422 0.889 0l3.134 9.042c0.066 0.189 0.244 0.316 0.445 0.316h10.074c0.463 0 0.648 0.599 0.265 0.86l-8.097 5.515c-0.176 0.12-0.249 0.342-0.18 0.543l3.105 8.958c0.149 0.428-0.335 0.798-0.709 0.543l-8.216-5.596c-0.16-0.109-0.37-0.109-0.53 0l-8.216 5.596c-0.375 0.255-0.858-0.115-0.71-0.543l3.105-8.958c0.070-0.201-0.004-0.423-0.18-0.543l-8.096-5.515c-0.383-0.261-0.198-0.86 0.265-0.86h10.074c0.2 0 0.379-0.127 0.445-0.316l3.134-9.042z"></path>
</symbol>
</defs>
</svg>
